    <svg
            width="25"
            height="25"
            viewBox="0 0 25 25"
            fill="none"
            xmlns="http://www.w3.org/2000/svg"
          >
            <g clipPath="url(#clip0_1008_2)">
              <path
                d="M21.1636 4.32874C19.5701 3.59762 17.8614 3.05895 16.0749 2.75044C16.0424 2.74449 16.0099 2.75937 15.9931 2.78913C15.7733 3.17997 15.5299 3.68987 15.3595 4.09064C13.4379 3.80297 11.5262 3.80297 9.64408 4.09064C9.47359 3.68096 9.22134 3.17997 9.0006 2.78913C8.98384 2.76036 8.95134 2.74548 8.9188 2.75044C7.13324 3.05797 5.42454 3.59663 3.83014 4.32874C3.81634 4.33469 3.80451 4.34462 3.79665 4.35751C0.555616 9.19955 -0.33224 13.9226 0.103313 18.5871C0.105283 18.6099 0.118094 18.6317 0.135831 18.6456C2.27418 20.2159 4.34553 21.1693 6.37842 21.8012C6.41095 21.8111 6.44542 21.7992 6.46613 21.7724C6.94701 21.1157 7.37567 20.4233 7.7432 19.6951C7.76489 19.6525 7.74419 19.6019 7.69986 19.585C7.01993 19.3271 6.3725 19.0126 5.74972 18.6555C5.70046 18.6267 5.69651 18.5563 5.74183 18.5225C5.87289 18.4243 6.00398 18.3222 6.12912 18.219C6.15176 18.2002 6.18331 18.1962 6.20993 18.2081C10.3013 20.0761 14.7308 20.0761 18.7739 18.2081C18.8005 18.1952 18.8321 18.1992 18.8557 18.218C18.9809 18.3212 19.1119 18.4243 19.244 18.5225C19.2893 18.5563 19.2863 18.6267 19.2371 18.6555C18.6143 19.0196 17.9669 19.3271 17.2859 19.584C17.2416 19.6009 17.2219 19.6525 17.2436 19.6951C17.619 20.4223 18.0477 21.1147 18.5197 21.7714C18.5394 21.7992 18.5749 21.8111 18.6074 21.8012C20.6501 21.1693 22.7215 20.2159 24.8598 18.6456C24.8786 18.6317 24.8904 18.6109 24.8924 18.588C25.4136 13.1954 24.0193 8.5111 21.1961 4.3585C21.1892 4.34462 21.1774 4.33469 21.1636 4.32874ZM8.35419 15.7469C7.12239 15.7469 6.10743 14.616 6.10743 13.2272C6.10743 11.8383 7.10271 10.7074 8.35419 10.7074C9.61549 10.7074 10.6206 11.8482 10.6009 13.2272C10.6009 14.616 9.60563 15.7469 8.35419 15.7469ZM16.6612 15.7469C15.4294 15.7469 14.4145 14.616 14.4145 13.2272C14.4145 11.8383 15.4097 10.7074 16.6612 10.7074C17.9225 10.7074 18.9276 11.8482 18.908 13.2272C18.908 14.616 17.9225 15.7469 16.6612 15.7469Z"
                fill="#5865F2"
              />
            </g>
            <defs>
              <clipPath id="clip0_1008_2">
                <rect width="25" height="25" fill="white" />
              </clipPath>
            </defs>
          </svg>