  <svg
            width="25"
            height="25"
            viewBox="0 0 25 25"
            fill="none"
            xmlns="http://www.w3.org/2000/svg"
          >
            <path
              d="M25 12.5C25 5.59644 19.4036 0 12.5 0C5.59644 0 0 5.59644 0 12.5C0 18.739 4.57104 23.9104 10.5469 24.8481V16.1133H7.37305V12.5H10.5469V9.74609C10.5469 6.61328 12.4131 4.88281 15.2683 4.88281C16.6355 4.88281 18.0664 5.12695 18.0664 5.12695V8.20312H16.4902C14.9375 8.20312 14.4531 9.16675 14.4531 10.1562V12.5H17.9199L17.3657 16.1133H14.4531V24.8481C20.429 23.9104 25 18.739 25 12.5Z"
              fill="#1877F2"
            />
            <path
              d="M17.3657 16.1133L17.9199 12.5H14.4531V10.1562C14.4531 9.16772 14.9375 8.20312 16.4902 8.20312H18.0664V5.12695C18.0664 5.12695 16.636 4.88281 15.2683 4.88281C12.4131 4.88281 10.5469 6.61328 10.5469 9.74609V12.5H7.37305V16.1133H10.5469V24.8481C11.8411 25.0506 13.1589 25.0506 14.4531 24.8481V16.1133H17.3657Z"
              fill="white"
            />
          </svg>