 <svg
            width="25"
            height="25"
            viewBox="0 0 25 25"
            fill="none"
            xmlns="http://www.w3.org/2000/svg"
          >
            <g clipPath="url(#clip0_17_203)">
              <path
                d="M8.3334 25C10.6334 25 12.5001 23.1333 12.5001 20.8333V16.6666H8.3334C6.03339 16.6666 4.16667 18.5333 4.16667 20.8333C4.16667 23.1333 6.03339 25 8.3334 25Z"
                fill="#0ACF83"
              />
              <path
                d="M4.16667 12.5C4.16667 10.2 6.03339 8.33331 8.3334 8.33331H12.5001V16.6666H8.3334C6.03339 16.6667 4.16667 14.8 4.16667 12.5Z"
                fill="#A259FF"
              />
              <path
                d="M4.16667 4.1667C4.16667 1.8667 6.03339 0 8.3334 0H12.5001V8.3333H8.3334C6.03339 8.3333 4.16667 6.4667 4.16667 4.1667Z"
                fill="#F24E1E"
              />
              <path
                d="M12.4999 0H16.6666C18.9666 0 20.8333 1.8667 20.8333 4.1667C20.8333 6.4667 18.9666 8.3333 16.6666 8.3333H12.4999V0Z"
                fill="#FF7262"
              />
              <path
                d="M20.8333 12.5C20.8333 14.8 18.9666 16.6667 16.6666 16.6667C14.3666 16.6667 12.4999 14.8 12.4999 12.5C12.4999 10.2 14.3666 8.33331 16.6666 8.33331C18.9666 8.33331 20.8333 10.2 20.8333 12.5Z"
                fill="#1ABCFE"
              />
            </g>
            <defs>
              <clipPath id="clip0_17_203">
                <rect width="25" height="25" fill="white" />
              </clipPath>
            </defs>
          </svg>