<svg width="16" height="17" viewBox="0 0 16 17" fill="none" xmlns="http://www.w3.org/2000/svg">
<path fill-rule="evenodd" clip-rule="evenodd" d="M11 5C11 6.65685 9.65685 8 8 8C6.34315 8 5 6.65685 5 5C5 3.34315 6.34315 2 8 2C9.65685 2 11 3.34315 11 5ZM13 5C13 7.76142 10.7614 10 8 10C5.23858 10 3 7.76142 3 5C3 2.23858 5.23858 0 8 0C10.7614 0 13 2.23858 13 5ZM3.02448 10.2903C3.16276 10.1835 3.33034 10.1177 3.50495 10.1118C4.01604 10.0945 4.27556 10.2136 4.47518 10.4393C4.86035 10.8748 4.60724 11.5818 4.1542 11.9462C3.32132 12.616 2.67734 13.4973 2.30604 14.4998H13.693C13.3218 13.4975 12.678 12.6164 11.8454 11.9466C11.3924 11.5822 11.1394 10.875 11.5246 10.4395C11.7243 10.2137 11.9838 10.0947 12.4948 10.1121C12.6693 10.1181 12.8368 10.1839 12.975 10.2906C14.5963 11.5427 15.7152 13.3928 15.9862 15.502C16.0566 16.0498 15.6021 16.4998 15.0499 16.4998H0.94919C0.396906 16.4998 -0.0575639 16.0498 0.0128303 15.502C0.283899 13.3927 1.40298 11.5424 3.02448 10.2903Z" fill="#222222"/>
</svg>
