  <svg
            width="25"
            height="25"
            viewBox="0 0 25 25"
            fill="none"
            xmlns="http://www.w3.org/2000/svg"
          >
            <g clipPath="url(#clip0_17_34)">
              <path
                d="M12.5 25C19.4036 25 25 19.4036 25 12.5C25 5.59644 19.4036 0 12.5 0C5.59644 0 0 5.59644 0 12.5C0 19.4036 5.59644 25 12.5 25Z"
                fill="white"
              />
              <path
                d="M12.5 0C5.59671 0 0 5.59671 0 12.5C0 17.7984 3.29218 22.3251 7.94239 24.1461C7.82922 23.1584 7.73663 21.6358 7.98354 20.5556C8.20988 19.5782 9.44445 14.3416 9.44445 14.3416C9.44445 14.3416 9.07407 13.5905 9.07407 12.4897C9.07407 10.751 10.0823 9.45473 11.3374 9.45473C12.4074 9.45473 12.9218 10.2572 12.9218 11.214C12.9218 12.284 12.2428 13.8889 11.8827 15.3807C11.5844 16.6255 12.5103 17.644 13.7346 17.644C15.9568 17.644 17.6646 15.2984 17.6646 11.9239C17.6646 8.93004 15.5144 6.84156 12.4383 6.84156C8.8786 6.84156 6.79012 9.50617 6.79012 12.2634C6.79012 13.3333 7.20165 14.4856 7.71605 15.1132C7.81893 15.2366 7.82922 15.3498 7.79835 15.4733C7.70576 15.8642 7.48971 16.7181 7.44856 16.893C7.39712 17.1193 7.26338 17.1708 7.02675 17.0576C5.46296 16.3272 4.4856 14.0535 4.4856 12.2119C4.4856 8.27161 7.34568 4.65021 12.7469 4.65021C17.0782 4.65021 20.4527 7.73663 20.4527 11.8724C20.4527 16.1831 17.7366 19.6502 13.9712 19.6502C12.7058 19.6502 11.5123 18.9918 11.1111 18.2099C11.1111 18.2099 10.4835 20.5967 10.3292 21.1831C10.0514 22.2737 9.29012 23.6317 8.77572 24.465C9.94856 24.8251 11.1831 25.0206 12.4794 25.0206C19.3827 25.0206 24.9794 19.4239 24.9794 12.5206C25 5.59671 19.4033 0 12.5 0Z"
                fill="#E60019"
              />
            </g>
            <defs>
              <clipPath id="clip0_17_34">
                <rect width="25" height="25" fill="white" />
              </clipPath>
            </defs>
          </svg>