  <svg
            width="25"
            height="25"
            viewBox="0 0 25 25"
            fill="none"
            xmlns="http://www.w3.org/2000/svg"
          >
            <path
              d="M12.5 0C5.59659 0 0 5.59602 0 12.5C0 19.404 5.59659 25 12.5 25C19.4034 25 25 19.404 25 12.5C25 5.59602 19.4034 0 12.5 0ZM18.5985 18.0195C18.3977 18.375 18.0284 18.575 17.6477 18.575C17.4697 18.575 17.286 18.5305 17.1174 18.4367C15.5568 17.5617 13.8561 17.0258 12.0587 16.8437C10.2576 16.6633 8.47917 16.846 6.77083 17.3915C6.20076 17.5735 5.58713 17.2585 5.40531 16.6875C5.2216 16.1155 5.53788 15.504 6.10985 15.321C8.10227 14.6845 10.1799 14.468 12.2784 14.6812C14.3731 14.8945 16.358 15.5195 18.1799 16.5407C18.7045 16.8328 18.892 17.4953 18.5985 18.0195ZM20.0947 14.2227C19.9015 14.5945 19.5227 14.8078 19.1307 14.8078C18.9602 14.8078 18.7898 14.7687 18.6288 14.6845C16.7102 13.6852 14.6382 13.0665 12.4659 12.846C10.2765 12.622 8.10796 12.8172 6.01705 13.4203C5.4394 13.5843 4.83713 13.254 4.67236 12.6765C4.50569 12.1 4.83901 11.4977 5.41477 11.3312C7.77461 10.6508 10.2216 10.4328 12.6856 10.6828C15.1326 10.932 17.4697 11.629 19.6345 12.757C20.1648 13.0345 20.3731 13.6905 20.0947 14.2227ZM20.6364 11.064C20.4735 11.064 20.3087 11.0273 20.1515 10.95C17.875 9.81477 15.4261 9.10777 12.8712 8.84848C10.3125 8.58674 7.76705 8.78902 5.30303 9.44697C4.72348 9.60076 4.12878 9.25701 3.97348 8.67651C3.81818 8.09678 4.16289 7.50076 4.74433 7.34602C7.46213 6.62027 10.2727 6.39924 13.0928 6.68599C15.9091 6.97102 18.6099 7.75152 21.1212 9.00398C21.6591 9.27178 21.8769 9.925 21.6098 10.4617C21.4204 10.8438 21.036 11.064 20.6364 11.064Z"
              fill="#1ED760"
            />
          </svg>