   <svg
            width="25"
            height="25"
            viewBox="0 0 25 25"
            fill="none"
            xmlns="http://www.w3.org/2000/svg"
          >
            <path
              d="M7.862 22.657C17.296 22.657 22.456 14.841 22.456 8.06297C22.456 7.84097 22.456 7.61997 22.441 7.39997C23.4448 6.67388 24.3114 5.77485 25 4.74497C24.0639 5.15997 23.0709 5.43201 22.054 5.55197C23.1248 4.91102 23.9262 3.90279 24.309 2.71497C23.3022 3.31248 22.2007 3.73354 21.052 3.95997C20.2787 3.13766 19.2559 2.59314 18.1419 2.41068C17.0279 2.22823 15.8848 2.41801 14.8895 2.95065C13.8943 3.4833 13.1023 4.32911 12.6362 5.35721C12.1701 6.38531 12.0558 7.53837 12.311 8.63797C10.2718 8.53568 8.27683 8.00571 6.45568 7.08248C4.63453 6.15924 3.02788 4.86337 1.74 3.27897C1.08409 4.40813 0.8832 5.74483 1.17823 7.01691C1.47326 8.28899 2.24202 9.4008 3.328 10.126C2.5117 10.1021 1.71317 9.88184 1 9.48397V9.54897C1.00032 10.7332 1.41026 11.8808 2.16028 12.7973C2.9103 13.7137 3.95423 14.3425 5.115 14.577C4.35988 14.7829 3.56758 14.8131 2.799 14.665C3.12689 15.6841 3.76503 16.5752 4.62421 17.2139C5.48338 17.8525 6.52065 18.2067 7.591 18.227C6.52754 19.0629 5.3097 19.6809 4.00716 20.0457C2.70462 20.4105 1.34293 20.5149 0 20.353C2.34566 21.8582 5.07492 22.6566 7.862 22.653"
              fill="#1DA1F2"
            />
          </svg>