    <svg
            width="25"
            height="25"
            viewBox="0 0 25 25"
            fill="none"
            xmlns="http://www.w3.org/2000/svg"
          >
            <path
              d="M0 12C0 6.34313 0 3.51472 1.75736 1.75736C3.51472 0 6.34313 0 12 0H13C18.6569 0 21.4853 0 23.2427 1.75736C25 3.51472 25 6.34313 25 12V13C25 18.6569 25 21.4853 23.2427 23.2427C21.4853 25 18.6569 25 13 25H12C6.34313 25 3.51472 25 1.75736 23.2427C0 21.4853 0 18.6569 0 13V12Z"
              fill="#0077FF"
            />
            <path
              d="M13.302 18.0105C7.60412 18.0105 4.35417 14.1042 4.21875 7.60425H7.07292C7.16667 12.3751 9.27078 14.3959 10.9374 14.8126V7.60425H13.6251V11.7188C15.2709 11.5417 16.9998 9.66675 17.5832 7.60425H20.2707C19.8228 10.1459 17.9478 12.0209 16.6145 12.7917C17.9478 13.4167 20.0833 15.0522 20.8958 18.0105H17.9374C17.302 16.0313 15.7188 14.5001 13.6251 14.2917V18.0105H13.302Z"
              fill="white"
            />
          </svg>