 <svg
            width="25"
            height="25"
            viewBox="0 0 25 25"
            fill="none"
            xmlns="http://www.w3.org/2000/svg"
          >
            <g clipPath="url(#clip0_17_47)">
              <path
                d="M24.5021 6.44318C24.3607 5.91132 24.0822 5.42591 23.6943 5.03553C23.3064 4.64515 22.8228 4.36349 22.2918 4.21874C20.3373 3.69318 12.5248 3.69318 12.5248 3.69318C12.5248 3.69318 4.71228 3.69318 2.75773 4.21874C2.22679 4.36349 1.74318 4.64515 1.35529 5.03553C0.967401 5.42591 0.688849 5.91132 0.547508 6.44318C0.0247803 8.40624 0.0247803 12.5 0.0247803 12.5C0.0247803 12.5 0.0247803 16.5937 0.547508 18.5568C0.688849 19.0887 0.967401 19.5741 1.35529 19.9645C1.74318 20.3548 2.22679 20.6365 2.75773 20.7812C4.71228 21.3068 12.5248 21.3068 12.5248 21.3068C12.5248 21.3068 20.3373 21.3068 22.2918 20.7812C22.8228 20.6365 23.3064 20.3548 23.6943 19.9645C24.0822 19.5741 24.3607 19.0887 24.5021 18.5568C25.0248 16.5937 25.0248 12.5 25.0248 12.5C25.0248 12.5 25.0248 8.40624 24.5021 6.44318Z"
                fill="#FF0302"
              />
              <path
                d="M9.96802 16.2174V8.78271L16.5021 12.5L9.96802 16.2174Z"
                fill="#FEFEFE"
              />
            </g>
            <defs>
              <clipPath id="clip0_17_47">
                <rect width="25" height="25" fill="white" />
              </clipPath>
            </defs>
          </svg>